<svg xmlns="http://www.w3.org/2000/svg" width="13" height="16" viewBox="0 0 13 16" fill="none">
  <path d="M11.5556 0H1.44444C1.06171 0.00105515 0.694969 0.14187 0.424331 0.39169C0.153692 0.64151 0.00114308 0.980036 0 1.33333L0 16H13V1.33333C12.9989 0.980036 12.8463 0.64151 12.5757 0.39169C12.305 0.14187 11.9383 0.00105515 11.5556 0ZM5.77778 14.6667V12H7.22222V14.6667H5.77778ZM11.5556 14.6667H8.66667V11.3333C8.67246 11.2444 8.65775 11.1553 8.6235 11.072C8.58925 10.9887 8.53625 10.9131 8.468 10.8501C8.39974 10.787 8.31778 10.7381 8.22753 10.7065C8.13729 10.6749 8.0408 10.6613 7.94444 10.6667H5.05556C4.9592 10.6613 4.86271 10.6749 4.77247 10.7065C4.68222 10.7381 4.60026 10.787 4.532 10.8501C4.46375 10.9131 4.41075 10.9887 4.3765 11.072C4.34225 11.1553 4.32754 11.2444 4.33333 11.3333V14.6667H1.44444V1.33333H11.5556V14.6667ZM4.33333 4H2.88889V2.66667H4.33333V4ZM7.22222 4H5.77778V2.66667H7.22222V4ZM10.1111 4H8.66667V2.66667H10.1111V4ZM4.33333 6.66667H2.88889V5.33333H4.33333V6.66667ZM7.22222 6.66667H5.77778V5.33333H7.22222V6.66667ZM10.1111 6.66667H8.66667V5.33333H10.1111V6.66667ZM4.33333 9.33333H2.88889V8H4.33333V9.33333ZM7.22222 9.33333H5.77778V8H7.22222V9.33333ZM10.1111 9.33333H8.66667V8H10.1111V9.33333Z" fill="#9C9C9C"/>
</svg>